# Blender v2.79 (sub 0) OBJ File: ''
# www.blender.org
mtllib level_1.mtl
o Plane
v -50000.000000 0.000000 50000.000000
v 50000.000000 0.000000 50000.000000
v -50000.000000 0.000000 -50000.000000
v 50000.000000 0.000000 -50000.000000
v -50000.000000 0.000000 -40909.089844
v -50000.000000 0.000000 -31818.181641
v -50000.000000 0.000000 -22727.271484
v -50000.000000 0.000000 -13636.362305
v -50000.000000 0.000000 -4545.453125
v -50000.000000 0.000000 4545.455566
v -50000.000000 0.000000 13636.364258
v -50000.000000 0.000000 22727.273438
v -50000.000000 0.000000 31818.181641
v -50000.000000 0.000000 40909.089844
v -40909.089844 0.000000 50000.000000
v -31818.181641 0.000000 50000.000000
v -22727.271484 0.000000 50000.000000
v -13636.362305 0.000000 50000.000000
v -4545.453125 0.000000 50000.000000
v 4545.455566 0.000000 50000.000000
v 13636.364258 0.000000 50000.000000
v 22727.273438 0.000000 50000.000000
v 31818.181641 0.000000 50000.000000
v 40909.089844 0.000000 50000.000000
v 50000.000000 0.000000 40909.089844
v 50000.000000 0.000000 31818.181641
v 50000.000000 0.000000 22727.271484
v 50000.000000 0.000000 13636.362305
v 50000.000000 0.000000 4545.453125
v 50000.000000 0.000000 -4545.455566
v 50000.000000 0.000000 -13636.364258
v 50000.000000 0.000000 -22727.273438
v 50000.000000 0.000000 -31818.181641
v 50000.000000 0.000000 -40909.089844
v 40909.089844 0.000000 -50000.000000
v 31818.181641 0.000000 -50000.000000
v 22727.271484 0.000000 -50000.000000
v 13636.362305 0.000000 -50000.000000
v 4545.453125 0.000000 -50000.000000
v -4545.455566 0.000000 -50000.000000
v -13636.364258 0.000000 -50000.000000
v -22727.273438 0.000000 -50000.000000
v -31818.181641 0.000000 -50000.000000
v -40909.089844 0.000000 -50000.000000
v -40909.089844 0.000000 40909.089844
v -40909.089844 0.000000 31818.181641
v -40909.089844 0.000000 22727.271484
v -40909.089844 0.000000 13636.362305
v -40909.089844 0.000000 4545.453125
v -40909.089844 0.000000 -4545.455566
v -40909.089844 0.000000 -13636.364258
v -40909.089844 0.000000 -22727.273438
v -40909.089844 0.000000 -31818.181641
v -40909.089844 0.000000 -40909.089844
v -31818.181641 0.000000 40909.089844
v -31818.181641 0.000000 31818.181641
v -31818.181641 0.000000 22727.271484
v -31818.181641 0.000000 13636.362305
v -31818.181641 0.000000 4545.453125
v -31818.181641 0.000000 -4545.455566
v -31818.181641 0.000000 -13636.364258
v -31818.181641 0.000000 -22727.273438
v -31818.181641 0.000000 -31818.181641
v -31818.181641 0.000000 -40909.089844
v -22727.271484 0.000000 40909.089844
v -22727.271484 0.000000 31818.181641
v -22727.271484 0.000000 22727.271484
v -22727.271484 0.000000 13636.362305
v -22727.271484 0.000000 4545.453125
v -22727.271484 0.000000 -4545.455566
v -22727.271484 0.000000 -13636.364258
v -22727.271484 0.000000 -22727.273438
v -22727.271484 0.000000 -31818.181641
v -22727.271484 0.000000 -40909.089844
v -13636.362305 0.000000 40909.089844
v -13636.362305 0.000000 31818.181641
v -13636.362305 0.000000 22727.271484
v -13636.362305 0.000000 13636.362305
v -13636.362305 0.000000 4545.453125
v -13636.362305 0.000000 -4545.455566
v -13636.362305 0.000000 -13636.364258
v -13636.362305 0.000000 -22727.273438
v -13636.362305 0.000000 -31818.181641
v -13636.362305 0.000000 -40909.089844
v -4545.453613 0.000000 40909.089844
v -4545.454102 0.000000 31818.181641
v -4545.454102 0.000000 22727.271484
v -4545.454102 0.000000 13636.362305
v -4545.454102 0.000000 4545.453125
v -4545.454590 0.000000 -4545.455566
v -4545.454590 0.000000 -13636.364258
v -4545.454590 0.000000 -22727.273438
v -4545.455078 0.000000 -31818.181641
v -4545.455566 0.000000 -40909.089844
v 4545.455078 0.000000 40909.089844
v 4545.454590 0.000000 31818.181641
v 4545.454590 0.000000 22727.271484
v 4545.454590 0.000000 13636.362305
v 4545.454102 0.000000 4545.453125
v 4545.454102 0.000000 -4545.455566
v 4545.454102 0.000000 -13636.364258
v 4545.454102 0.000000 -22727.273438
v 4545.453613 0.000000 -31818.181641
v 4545.453125 0.000000 -40909.089844
v 13636.364258 0.000000 40909.089844
v 13636.364258 0.000000 31818.181641
v 13636.364258 0.000000 22727.271484
v 13636.364258 0.000000 13636.362305
v 13636.364258 0.000000 4545.453125
v 13636.364258 0.000000 -4545.455566
v 13636.364258 0.000000 -13636.364258
v 13636.364258 0.000000 -22727.273438
v 13636.364258 0.000000 -31818.181641
v 13636.362305 0.000000 -40909.089844
v 22727.273438 0.000000 40909.089844
v 22727.273438 0.000000 31818.181641
v 22727.273438 0.000000 22727.271484
v 22727.273438 0.000000 13636.362305
v 22727.273438 0.000000 4545.453125
v 22727.273438 0.000000 -4545.455566
v 22727.273438 0.000000 -13636.364258
v 22727.273438 0.000000 -22727.273438
v 22727.273438 0.000000 -31818.181641
v 22727.271484 0.000000 -40909.089844
v 31818.181641 0.000000 40909.089844
v 31818.181641 0.000000 31818.181641
v 31818.181641 0.000000 22727.271484
v 31818.181641 0.000000 13636.362305
v 31818.181641 0.000000 4545.453125
v 31818.181641 0.000000 -4545.455566
v 31818.181641 0.000000 -13636.364258
v 31818.181641 0.000000 -22727.273438
v 31818.181641 0.000000 -31818.181641
v 31818.181641 0.000000 -40909.089844
v 40909.089844 0.000000 40909.089844
v 40909.089844 0.000000 31818.181641
v 40909.089844 0.000000 22727.271484
v 40909.089844 0.000000 13636.362305
v 40909.089844 0.000000 4545.453125
v 40909.089844 0.000000 -4545.455566
v 40909.089844 0.000000 -13636.364258
v 40909.089844 0.000000 -22727.273438
v 40909.089844 0.000000 -31818.181641
v 40909.089844 0.000000 -40909.089844
v -50000.000000 9999.999023 40909.089844
v -50000.000000 9999.999023 50000.000000
v 40909.089844 9999.999023 50000.000000
v 50000.000000 9999.999023 50000.000000
v 50000.000000 9999.999023 -40909.089844
v 50000.000000 9999.999023 -50000.000000
v -40909.089844 9999.999023 -50000.000000
v -50000.000000 9999.999023 -50000.000000
v -50000.000000 9999.999023 -40909.089844
v -50000.000000 9999.999023 -31818.181641
v -50000.000000 9999.999023 -22727.271484
v -50000.000000 9999.999023 -13636.362305
v -50000.000000 9999.999023 -4545.453125
v -50000.000000 9999.999023 4545.455566
v -50000.000000 9999.999023 13636.364258
v -50000.000000 9999.999023 22727.273438
v -50000.000000 9999.999023 31818.181641
v -40909.089844 9999.999023 50000.000000
v -31818.181641 9999.999023 50000.000000
v -22727.271484 9999.999023 50000.000000
v -13636.362305 9999.999023 50000.000000
v -4545.453125 9999.999023 50000.000000
v 4545.455566 9999.999023 50000.000000
v 13636.364258 9999.999023 50000.000000
v 22727.273438 9999.999023 50000.000000
v 31818.181641 9999.999023 50000.000000
v 50000.000000 9999.999023 40909.089844
v 50000.000000 9999.999023 31818.181641
v 50000.000000 9999.999023 22727.271484
v 50000.000000 9999.999023 13636.362305
v 50000.000000 9999.999023 4545.453125
v 50000.000000 9999.999023 -4545.455566
v 50000.000000 9999.999023 -13636.364258
v 50000.000000 9999.999023 -22727.273438
v 50000.000000 9999.999023 -31818.181641
v 40909.089844 9999.999023 -50000.000000
v 31818.181641 9999.999023 -50000.000000
v 22727.271484 9999.999023 -50000.000000
v 13636.362305 9999.999023 -50000.000000
v 4545.453125 9999.999023 -50000.000000
v -4545.455566 9999.999023 -50000.000000
v -13636.364258 9999.999023 -50000.000000
v -22727.273438 9999.999023 -50000.000000
v -31818.181641 9999.999023 -50000.000000
v -40909.089844 9999.999023 -40909.089844
v -40909.089844 9999.999023 40909.089844
v -40909.089844 9999.999023 31818.181641
v -40909.089844 9999.999023 22727.271484
v -40909.089844 9999.999023 13636.362305
v -40909.089844 9999.999023 4545.453125
v -40909.089844 9999.999023 -4545.455566
v -40909.089844 9999.999023 -13636.364258
v -40909.089844 9999.999023 -22727.273438
v -40909.089844 9999.999023 -31818.181641
v -31818.181641 9999.999023 -40909.089844
v -31818.181641 9999.999023 40909.089844
v -31818.181641 9999.999023 31818.181641
v -31818.181641 9999.999023 22727.271484
v -31818.181641 9999.999023 13636.362305
v -31818.181641 9999.999023 4545.453125
v -31818.181641 9999.999023 -4545.455566
v -31818.181641 9999.999023 -13636.364258
v -31818.181641 9999.999023 -22727.273438
v -31818.181641 9999.999023 -31818.181641
v -22727.271484 9999.999023 -40909.089844
v -22727.271484 9999.999023 40909.089844
v -22727.271484 9999.999023 31818.181641
v -22727.271484 9999.999023 22727.271484
v -22727.271484 9999.999023 13636.362305
v -22727.271484 9999.999023 4545.453125
v -22727.271484 9999.999023 -4545.455566
v -22727.271484 9999.999023 -13636.364258
v -22727.271484 9999.999023 -22727.273438
v -22727.271484 9999.999023 -31818.181641
v -13636.362305 9999.999023 -40909.089844
v -13636.362305 9999.999023 40909.089844
v -13636.362305 9999.999023 31818.181641
v -13636.362305 9999.999023 22727.271484
v -13636.362305 9999.999023 13636.362305
v -13636.362305 9999.999023 4545.453125
v -13636.362305 9999.999023 -4545.455566
v -13636.362305 9999.999023 -13636.364258
v -13636.362305 9999.999023 -22727.273438
v -13636.362305 9999.999023 -31818.181641
v -4545.455566 9999.999023 -40909.089844
v -4545.453613 9999.999023 40909.089844
v -4545.454102 9999.999023 31818.181641
v -4545.454102 9999.999023 22727.271484
v -4545.454102 9999.999023 13636.362305
v -4545.454102 9999.999023 4545.453125
v -4545.454590 9999.999023 -4545.455566
v -4545.454590 9999.999023 -13636.364258
v -4545.454590 9999.999023 -22727.273438
v -4545.455078 9999.999023 -31818.181641
v 4545.453125 9999.999023 -40909.089844
v 4545.455078 9999.999023 40909.089844
v 4545.454590 9999.999023 31818.181641
v 4545.454590 9999.999023 22727.271484
v 4545.454590 9999.999023 13636.362305
v 4545.454102 9999.999023 4545.453125
v 4545.454102 9999.999023 -4545.455566
v 4545.454102 9999.999023 -13636.364258
v 4545.454102 9999.999023 -22727.273438
v 4545.453613 9999.999023 -31818.181641
v 13636.362305 9999.999023 -40909.089844
v 13636.364258 9999.999023 40909.089844
v 13636.364258 9999.999023 31818.181641
v 13636.364258 9999.999023 22727.271484
v 13636.364258 9999.999023 13636.362305
v 13636.364258 9999.999023 4545.453125
v 13636.364258 9999.999023 -4545.455566
v 13636.364258 9999.999023 -13636.364258
v 13636.364258 9999.999023 -22727.273438
v 13636.364258 9999.999023 -31818.181641
v 22727.271484 9999.999023 -40909.089844
v 22727.273438 9999.999023 40909.089844
v 22727.273438 9999.999023 31818.181641
v 22727.273438 9999.999023 22727.271484
v 22727.273438 9999.999023 13636.362305
v 22727.273438 9999.999023 4545.453125
v 22727.273438 9999.999023 -4545.455566
v 22727.273438 9999.999023 -13636.364258
v 22727.273438 9999.999023 -22727.273438
v 22727.273438 9999.999023 -31818.181641
v 31818.181641 9999.999023 -40909.089844
v 31818.181641 9999.999023 40909.089844
v 31818.181641 9999.999023 31818.181641
v 31818.181641 9999.999023 22727.271484
v 31818.181641 9999.999023 13636.362305
v 31818.181641 9999.999023 4545.453125
v 31818.181641 9999.999023 -4545.455566
v 31818.181641 9999.999023 -13636.364258
v 31818.181641 9999.999023 -22727.273438
v 31818.181641 9999.999023 -31818.181641
v 40909.089844 9999.999023 -40909.089844
v 40909.089844 9999.999023 40909.089844
v 40909.089844 9999.999023 31818.181641
v 40909.089844 9999.999023 22727.271484
v 40909.089844 9999.999023 13636.362305
v 40909.089844 9999.999023 4545.453125
v 40909.089844 9999.999023 -4545.455566
v 40909.089844 9999.999023 -13636.364258
v 40909.089844 9999.999023 -22727.273438
v 40909.089844 9999.999023 -31818.181641
vn 1.0000 0.0000 0.0000
vn 0.0000 0.0000 -1.0000
vn -1.0000 0.0000 0.0000
vn 0.0000 0.0000 1.0000
vn 0.0000 1.0000 0.0000
usemtl None
s off
f 45//1 46//1 191//1 190//1
f 91//2 81//2 226//2 236//2
f 139//3 138//3 283//3 284//3
f 141//2 131//2 276//2 286//2
f 138//3 137//3 282//3 283//3
f 90//1 91//1 236//1 235//1
f 130//4 140//4 285//4 275//4
f 137//3 136//3 281//3 282//3
f 43//2 44//2 151//2 188//2
f 89//1 90//1 235//1 234//1
f 136//3 135//3 280//3 281//3
f 42//2 43//2 188//2 187//2
f 88//1 89//1 234//1 233//1
f 41//2 42//2 187//2 186//2
f 76//4 86//4 231//4 221//4
f 87//1 88//1 233//1 232//1
f 40//2 41//2 186//2 185//2
f 85//2 75//2 220//2 230//2
f 86//1 87//1 232//1 231//1
f 39//2 40//2 185//2 184//2
f 6//5 53//5 54//5 5//5
f 74//4 84//4 219//4 209//4
f 45//5 55//5 56//5 46//5
f 46//5 56//5 57//5 47//5
f 47//5 57//5 58//5 48//5
f 48//5 58//5 59//5 49//5
f 49//5 59//5 60//5 50//5
f 50//5 60//5 61//5 51//5
f 51//5 61//5 62//5 52//5
f 52//5 62//5 63//5 53//5
f 53//5 63//5 64//5 54//5
f 135//2 125//2 270//2 280//2
f 55//5 65//5 66//5 56//5
f 132//1 133//1 278//1 277//1
f 38//2 39//2 184//2 183//2
f 124//4 134//4 269//4 259//4
f 37//2 38//2 183//2 182//2
f 133//2 123//2 268//2 278//2
f 36//2 37//2 182//2 181//2
f 122//4 132//4 277//4 267//4
f 129//1 130//1 275//1 274//1
f 35//2 36//2 181//2 180//2
f 65//5 75//5 76//5 66//5
f 83//3 82//3 227//3 228//3
f 67//5 77//5 78//5 68//5
f 68//5 78//5 79//5 69//5
f 69//5 79//5 80//5 70//5
f 70//5 80//5 81//5 71//5
f 71//5 81//5 82//5 72//5
f 72//5 82//5 83//5 73//5
f 73//5 83//5 84//5 74//5
f 131//2 121//2 266//2 276//2
f 75//5 85//5 86//5 76//5
f 128//1 129//1 274//1 273//1
f 4//2 35//2 180//2 150//2
f 127//1 128//1 273//1 272//1
f 33//1 34//1 149//1 179//1
f 81//3 80//3 225//3 226//3
f 81//5 91//5 92//5 82//5
f 126//1 127//1 272//1 271//1
f 83//5 93//5 94//5 84//5
f 32//1 33//1 179//1 178//1
f 85//5 95//5 96//5 86//5
f 86//5 96//5 97//5 87//5
f 87//5 97//5 98//5 88//5
f 88//5 98//5 99//5 89//5
f 89//5 99//5 100//5 90//5
f 90//5 100//5 101//5 91//5
f 91//5 101//5 102//5 92//5
f 77//2 67//2 212//2 222//2
f 93//5 103//5 104//5 94//5
f 80//3 79//3 224//3 225//3
f 31//1 32//1 178//1 177//1
f 66//4 76//4 221//4 211//4
f 79//3 78//3 223//3 224//3
f 30//1 31//1 177//1 176//1
f 75//2 65//2 210//2 220//2
f 78//3 77//3 222//3 223//3
f 116//4 126//4 271//4 261//4
f 29//1 30//1 176//1 175//1
f 103//5 113//5 114//5 104//5
f 125//2 115//2 260//2 270//2
f 105//5 115//5 116//5 106//5
f 106//5 116//5 117//5 107//5
f 107//5 117//5 118//5 108//5
f 108//5 118//5 119//5 109//5
f 109//5 119//5 120//5 110//5
f 110//5 120//5 121//5 111//5
f 111//5 121//5 122//5 112//5
f 28//1 29//1 175//1 174//1
f 113//5 123//5 124//5 114//5
f 114//4 124//4 259//4 249//4
f 115//5 125//5 126//5 116//5
f 27//1 28//1 174//1 173//1
f 123//2 113//2 258//2 268//2
f 26//1 27//1 173//1 172//1
f 112//4 122//4 267//4 257//4
f 121//3 120//3 265//3 266//3
f 121//5 131//5 132//5 122//5
f 25//1 26//1 172//1 171//1
f 123//5 133//5 134//5 124//5
f 73//1 74//1 209//1 218//1
f 125//5 135//5 136//5 126//5
f 126//5 136//5 137//5 127//5
f 127//5 137//5 138//5 128//5
f 128//5 138//5 139//5 129//5
f 129//5 139//5 140//5 130//5
f 120//3 119//3 264//3 265//3
f 131//5 141//5 142//5 132//5
f 132//5 142//5 143//5 133//5
f 133//5 143//5 144//5 134//5
f 2//1 25//1 171//1 148//1
f 72//1 73//1 218//1 217//1
f 119//3 118//3 263//3 264//3
f 23//4 24//4 147//4 170//4
f 71//1 72//1 217//1 216//1
f 118//3 117//3 262//3 263//3
f 22//4 23//4 170//4 169//4
f 70//1 71//1 216//1 215//1
f 117//3 116//3 261//3 262//3
f 21//4 22//4 169//4 168//4
f 279//5 149//5 150//5 180//5
f 153//5 189//5 151//5 152//5
f 189//5 199//5 188//5 151//5
f 199//5 209//5 187//5 188//5
f 209//5 219//5 186//5 187//5
f 219//5 229//5 185//5 186//5
f 229//5 239//5 184//5 185//5
f 239//5 249//5 183//5 184//5
f 249//5 259//5 182//5 183//5
f 259//5 269//5 181//5 182//5
f 269//5 279//5 180//5 181//5
f 146//5 162//5 190//5 145//5
f 145//5 190//5 191//5 161//5
f 161//5 191//5 192//5 160//5
f 160//5 192//5 193//5 159//5
f 159//5 193//5 194//5 158//5
f 158//5 194//5 195//5 157//5
f 157//5 195//5 196//5 156//5
f 156//5 196//5 197//5 155//5
f 155//5 197//5 198//5 154//5
f 162//5 163//5 200//5 190//5
f 163//5 164//5 210//5 200//5
f 201//5 211//5 212//5 202//5
f 202//5 212//5 213//5 203//5
f 203//5 213//5 214//5 204//5
f 204//5 214//5 215//5 205//5
f 205//5 215//5 216//5 206//5
f 206//5 216//5 217//5 207//5
f 207//5 217//5 218//5 208//5
f 208//5 218//5 209//5 199//5
f 164//5 165//5 220//5 210//5
f 211//5 221//5 222//5 212//5
f 165//5 166//5 230//5 220//5
f 221//5 231//5 232//5 222//5
f 222//5 232//5 233//5 223//5
f 223//5 233//5 234//5 224//5
f 224//5 234//5 235//5 225//5
f 225//5 235//5 236//5 226//5
f 227//5 237//5 238//5 228//5
f 166//5 167//5 240//5 230//5
f 237//5 247//5 248//5 238//5
f 167//5 168//5 250//5 240//5
f 240//5 250//5 251//5 241//5
f 241//5 251//5 252//5 242//5
f 242//5 252//5 253//5 243//5
f 243//5 253//5 254//5 244//5
f 244//5 254//5 255//5 245//5
f 245//5 255//5 256//5 246//5
f 246//5 256//5 257//5 247//5
f 247//5 257//5 258//5 248//5
f 168//5 169//5 260//5 250//5
f 257//5 267//5 268//5 258//5
f 169//5 170//5 270//5 260//5
f 261//5 271//5 272//5 262//5
f 262//5 272//5 273//5 263//5
f 263//5 273//5 274//5 264//5
f 264//5 274//5 275//5 265//5
f 265//5 275//5 276//5 266//5
f 267//5 277//5 278//5 268//5
f 170//5 147//5 280//5 270//5
f 275//5 285//5 286//5 276//5
f 147//5 148//5 171//5 280//5
f 280//5 171//5 172//5 281//5
f 281//5 172//5 173//5 282//5
f 282//5 173//5 174//5 283//5
f 283//5 174//5 175//5 284//5
f 284//5 175//5 176//5 285//5
f 285//5 176//5 177//5 286//5
f 286//5 177//5 178//5 287//5
f 287//5 178//5 179//5 288//5
f 288//5 179//5 149//5 279//5
f 140//3 139//3 284//3 285//3
f 82//4 92//4 237//4 227//4
f 46//1 47//1 192//1 191//1
f 134//4 144//4 279//4 269//4
f 93//2 83//2 228//2 238//2
f 47//1 48//1 193//1 192//1
f 142//3 141//3 286//3 287//3
f 84//4 94//4 229//4 219//4
f 48//1 49//1 194//1 193//1
f 143//3 142//3 287//3 288//3
f 96//3 95//3 240//3 241//3
f 95//2 85//2 230//2 240//2
f 49//1 50//1 195//1 194//1
f 144//3 143//3 288//3 279//3
f 97//3 96//3 241//3 242//3
f 50//1 51//1 196//1 195//1
f 14//3 1//3 146//3 145//3
f 98//3 97//3 242//3 243//3
f 51//1 52//1 197//1 196//1
f 24//4 2//4 148//4 147//4
f 99//3 98//3 243//3 244//3
f 52//1 53//1 198//1 197//1
f 34//1 4//1 150//1 149//1
f 100//3 99//3 244//3 245//3
f 44//2 3//2 152//2 151//2
f 101//3 100//3 245//3 246//3
f 3//3 5//3 153//3 152//3
f 102//3 101//3 246//3 247//3
f 92//4 102//4 247//4 237//4
f 6//3 7//3 155//3 154//3
f 103//2 93//2 238//2 248//2
f 57//3 56//3 201//3 202//3
f 7//3 8//3 156//3 155//3
f 94//4 104//4 239//4 229//4
f 58//3 57//3 202//3 203//3
f 53//2 6//2 154//2 198//2
f 8//3 9//3 157//3 156//3
f 59//3 58//3 203//3 204//3
f 5//4 54//4 189//4 153//4
f 9//3 10//3 158//3 157//3
f 105//1 106//1 251//1 250//1
f 60//3 59//3 204//3 205//3
f 55//2 45//2 190//2 200//2
f 10//3 11//3 159//3 158//3
f 106//1 107//1 252//1 251//1
f 61//3 60//3 205//3 206//3
f 11//3 12//3 160//3 159//3
f 107//1 108//1 253//1 252//1
f 62//3 61//3 206//3 207//3
f 12//3 13//3 161//3 160//3
f 108//1 109//1 254//1 253//1
f 63//3 62//3 207//3 208//3
f 13//3 14//3 145//3 161//3
f 109//1 110//1 255//1 254//1
f 64//3 63//3 208//3 199//3
f 1//4 15//4 162//4 146//4
f 110//1 111//1 256//1 255//1
f 15//4 16//4 163//4 162//4
f 111//1 112//1 257//1 256//1
f 16//4 17//4 164//4 163//4
f 113//2 103//2 248//2 258//2
f 17//4 18//4 165//4 164//4
f 104//4 114//4 249//4 239//4
f 18//4 19//4 166//4 165//4
f 115//2 105//2 250//2 260//2
f 67//1 68//1 213//1 212//1
f 54//4 64//4 199//4 189//4
f 19//4 20//4 167//4 166//4
f 68//1 69//1 214//1 213//1
f 65//2 55//2 200//2 210//2
f 20//4 21//4 168//4 167//4
f 69//1 70//1 215//1 214//1
f 56//4 66//4 211//4 201//4
